<svg width="44" height="41" viewBox="0 0 44 41" fill="none" xmlns="http://www.w3.org/2000/svg">
<path d="M39.4655 11.6731H37.5441V8.72554L22 2.03444L6.45585 8.7293V11.6731H4.53444V7.52608L22 0L39.4655 7.52608V11.6731ZM42.1747 12.6029H1.8253V10.7433H42.1747V12.6029ZM44 41H0V39.1403H44V41ZM42.1747 35.6813H1.8253V33.8217H42.1747V35.6813ZM40.3494 41H3.65068V39.1403H40.3494V41ZM12.8349 17.9216H5.49519V16.0619H12.8349V17.9216ZM12.8349 30.3441H5.49519V28.4844H12.8349V30.3441ZM10.1258 29.4143H8.20437V16.9917H10.1258V29.4143ZM25.6698 17.9216H18.3301V16.0619H25.6698V17.9216ZM25.6698 30.3441H18.3301V28.4844H25.6698V30.3441ZM22.9607 29.4143H21.0393V16.9917H22.9607V29.4143ZM38.5048 17.9216H31.1651V16.0619H38.5049L38.5048 17.9216ZM38.5048 30.3441H31.1651V28.4844H38.5049L38.5048 30.3441ZM35.7956 29.4143H33.8742V16.9917H35.7956V29.4143Z" fill="#CAA45D"/>
</svg>
